<svg width="1653" height="993" xmlns="http://www.w3.org/2000/svg" xmlns:xlink="http://www.w3.org/1999/xlink" overflow="hidden"><defs><clipPath id="clip0"><rect x="1289" y="287" width="1653" height="993"/></clipPath><clipPath id="clip1"><rect x="1290" y="287" width="1650" height="990"/></clipPath><clipPath id="clip2"><rect x="1290" y="287" width="1650" height="990"/></clipPath><clipPath id="clip3"><rect x="1400" y="338" width="1493" height="731"/></clipPath><clipPath id="clip4"><rect x="1400" y="338" width="1493" height="731"/></clipPath><clipPath id="clip5"><rect x="1290" y="287" width="1650" height="990"/></clipPath><clipPath id="clip6"><rect x="1290" y="287" width="1650" height="990"/></clipPath><clipPath id="clip7"><rect x="1290" y="287" width="1650" height="990"/></clipPath><clipPath id="clip8"><rect x="1290" y="287" width="1650" height="990"/></clipPath><clipPath id="clip9"><rect x="1290" y="287" width="1650" height="990"/></clipPath><clipPath id="clip10"><rect x="1290" y="287" width="1650" height="990"/></clipPath><clipPath id="clip11"><rect x="1290" y="287" width="1650" height="990"/></clipPath><clipPath id="clip12"><rect x="1290" y="287" width="1650" height="990"/></clipPath><clipPath id="clip13"><rect x="1290" y="287" width="1650" height="990"/></clipPath><clipPath id="clip14"><rect x="1290" y="287" width="1650" height="990"/></clipPath><clipPath id="clip15"><rect x="1290" y="287" width="1650" height="990"/></clipPath><clipPath id="clip16"><rect x="1290" y="287" width="1650" height="990"/></clipPath><clipPath id="clip17"><rect x="1290" y="287" width="1650" height="990"/></clipPath><clipPath id="clip18"><rect x="1290" y="287" width="1650" height="990"/></clipPath><clipPath id="clip19"><rect x="1290" y="287" width="1650" height="990"/></clipPath><clipPath id="clip20"><rect x="1290" y="287" width="1650" height="990"/></clipPath><clipPath id="clip21"><rect x="1290" y="287" width="1650" height="990"/></clipPath></defs><g clip-path="url(#clip0)" transform="translate(-1289 -287)"><rect x="1290" y="288" width="1650" height="990" fill="#FFFFFF"/><g clip-path="url(#clip1)"><path d="M1400.5 920.53 2889.5 920.53M1400.5 775.526 2889.5 775.526M1400.5 629.521 2889.5 629.521M1400.5 483.516 2889.5 483.516M1400.5 338.5 2889.5 338.5" stroke="#D9D9D9" stroke-width="3.4375" stroke-linejoin="round" stroke-miterlimit="10" fill="none"/></g><g clip-path="url(#clip2)"><path d="M1400.5 1066.5 2889.5 1066.5" stroke="#D9D9D9" stroke-width="3.4375" stroke-linejoin="round" stroke-miterlimit="10" fill="none" fill-rule="evenodd"/></g><g clip-path="url(#clip3)"><path d="M1506 1066 1719.06 979.032 1932.06 950.031 2145.07 892 2358.08 1008.03 2570.08 1037.03 2783 1008.03" stroke="#4472C4" stroke-width="10.3125" stroke-linecap="round" stroke-linejoin="round" stroke-miterlimit="10" fill="none"/></g><g clip-path="url(#clip4)"><path d="M1506 775.025 1719.06 688.023 1932.06 629.021 2145.07 455 2358.08 746.024 2570.08 775.025 2783 833" stroke="#ED7D31" stroke-width="10.3125" stroke-linecap="round" stroke-linejoin="round" stroke-miterlimit="10" fill="none"/></g><g clip-path="url(#clip5)"><text fill="#595959" font-family="Calibri,Calibri_MSFontService,sans-serif" font-weight="400" font-size="41" transform="matrix(1 0 0 1 1340.9 1078)">0</text></g><g clip-path="url(#clip6)"><text fill="#595959" font-family="Calibri,Calibri_MSFontService,sans-serif" font-weight="400" font-size="41" transform="matrix(1 0 0 1 1340.9 932)">5</text></g><g clip-path="url(#clip7)"><text fill="#595959" font-family="Calibri,Calibri_MSFontService,sans-serif" font-weight="400" font-size="41" transform="matrix(1 0 0 1 1320 787)">10</text></g><g clip-path="url(#clip8)"><text fill="#595959" font-family="Calibri,Calibri_MSFontService,sans-serif" font-weight="400" font-size="41" transform="matrix(1 0 0 1 1320 641)">15</text></g><g clip-path="url(#clip9)"><text fill="#595959" font-family="Calibri,Calibri_MSFontService,sans-serif" font-weight="400" font-size="41" transform="matrix(1 0 0 1 1320 495)">20</text></g><g clip-path="url(#clip10)"><text fill="#595959" font-family="Calibri,Calibri_MSFontService,sans-serif" font-weight="400" font-size="41" transform="matrix(1 0 0 1 1320 350)">25</text></g><g clip-path="url(#clip11)"><text fill="#595959" font-family="Calibri,Calibri_MSFontService,sans-serif" font-weight="400" font-size="41" transform="matrix(1 0 0 1 1485.58 1132)">15</text></g><g clip-path="url(#clip12)"><text fill="#595959" font-family="Calibri,Calibri_MSFontService,sans-serif" font-weight="400" font-size="41" transform="matrix(1 0 0 1 1698.39 1132)">16</text></g><g clip-path="url(#clip13)"><text fill="#595959" font-family="Calibri,Calibri_MSFontService,sans-serif" font-weight="400" font-size="41" transform="matrix(1 0 0 1 1911.21 1132)">17</text></g><g clip-path="url(#clip14)"><text fill="#595959" font-family="Calibri,Calibri_MSFontService,sans-serif" font-weight="400" font-size="41" transform="matrix(1 0 0 1 2124.03 1132)">18</text></g><g clip-path="url(#clip15)"><text fill="#595959" font-family="Calibri,Calibri_MSFontService,sans-serif" font-weight="400" font-size="41" transform="matrix(1 0 0 1 2336.85 1132)">19</text></g><g clip-path="url(#clip16)"><text fill="#595959" font-family="Calibri,Calibri_MSFontService,sans-serif" font-weight="400" font-size="41" transform="matrix(1 0 0 1 2549.66 1132)">20</text></g><g clip-path="url(#clip17)"><text fill="#595959" font-family="Calibri,Calibri_MSFontService,sans-serif" font-weight="400" font-size="41" transform="matrix(1 0 0 1 2762.48 1132)">21</text></g><g clip-path="url(#clip18)"><path d="M1924 1211 2012 1211" stroke="#4472C4" stroke-width="10.3125" stroke-linecap="round" stroke-linejoin="round" stroke-miterlimit="10" fill="none" fill-rule="evenodd"/></g><g clip-path="url(#clip19)"><text fill="#595959" font-family="Yu Gothic,Yu Gothic_MSFontService,sans-serif" font-weight="400" font-size="41" transform="matrix(1 0 0 1 2021.59 1224)">最低</text></g><g clip-path="url(#clip20)"><path d="M2142 1211 2230 1211" stroke="#ED7D31" stroke-width="10.3125" stroke-linecap="round" stroke-linejoin="round" stroke-miterlimit="10" fill="none" fill-rule="evenodd"/></g><g clip-path="url(#clip21)"><text fill="#595959" font-family="Yu Gothic,Yu Gothic_MSFontService,sans-serif" font-weight="400" font-size="41" transform="matrix(1 0 0 1 2239.76 1224)">最高</text></g><rect x="1290.5" y="288.5" width="1650" height="990" stroke="#D9D9D9" stroke-width="3.4375" stroke-linejoin="round" stroke-miterlimit="10" fill="none"/></g></svg>